<?xml version="1.0" encoding="UTF-8" standalone="no"?>
<!-- Created with Inkscape (http://www.inkscape.org/) -->

<svg
   version="1.1"
   id="svg1"
   width="125"
   height="47"
   viewBox="0 0 177 66"
   fill="none"
   sodipodi:docname="OIP (1).svg"
   inkscape:version="1.3.1 (91b66b0783, 2023-11-16)"
   xmlns:inkscape="http://www.inkscape.org/namespaces/inkscape"
   xmlns:sodipodi="http://sodipodi.sourceforge.net/DTD/sodipodi-0.dtd"
   xmlns="http://www.w3.org/2000/svg"
   xmlns:svg="http://www.w3.org/2000/svg">
  <g
     inkscape:groupmode="layer"
     inkscape:label="Image"
     id="g1">
<path d="M73.1569 42.9005H66.9438V0.570865H73.1569V42.9005Z" fill="#ffffff"></path>
<path d="M128.17 21.6643C128.17 33.8237 118.661 43.4428 104.514 43.4428C90.9502 43.4428 81.6744 33.6239 81.6744 21.8356C81.6744 10.6181 90.046 0 104.806 0C119.215 0 128.17 10.3041 128.17 21.6643ZM88.0625 21.8641C88.0625 31.4832 95.7924 37.8198 104.864 37.8198C109.502 37.8198 114.519 35.9645 117.494 32.7962C120.236 29.8848 121.811 25.2893 121.811 21.6072C121.811 14.5856 116.357 5.70865 105.068 5.70865C92.9629 5.70865 88.0625 14.7854 88.0625 21.8641Z" fill="#ffffff"></path>
<path d="M176.825 42.9005H170.612V9.93305L157.282 26.3169H156.144L142.697 9.93305V42.9005H136.484V0.570865H142.318L156.727 17.9537L171.049 0.570865H176.825V42.9005Z" fill="#ffffff"></path>
<path d="M13.0971 58.9418C13.0971 60.3119 13.0971 62.2813 11.4344 63.7085C10.1218 64.8217 8.4883 65.2498 6.79647 65.2498C4.72544 65.2498 2.45023 64.5648 1.28345 62.7951C0.466711 61.5678 0.466711 59.9123 0.466711 58.9703V50.9782H2.56691V58.9703C2.56691 60.8256 2.74193 61.5678 3.50033 62.2813C4.11289 62.9093 5.10465 63.4516 6.79647 63.4516C9.1592 63.4516 10.2093 62.2813 10.5885 61.5963C10.8802 61.1111 10.9969 60.3689 10.9969 58.9703V50.9782H13.0971V58.9418Z" fill="#ffffff"></path>
<path d="M32.2905 65.05H30.482L20.6519 54.2036V65.05H18.6684V50.9497H20.3603L30.2779 61.8817V50.9497H32.2905V65.05Z" fill="#ffffff"></path>
<path d="M59.4473 65.05H57.3471V54.0609L52.7966 59.5127H52.4174L47.8378 54.0609V65.05H45.7376V50.9497H47.7212L52.6216 56.744L57.4929 50.9497H59.4473V65.05Z" fill="#ffffff"></path>
<path d="M67.4397 65.05H65.3395V50.9497H67.4397V65.05Z" fill="#ffffff"></path>
<path d="M85.4372 64.0797C84.3288 64.565 82.4911 65.25 80.0409 65.25C74.3528 65.25 71.9901 61.3396 71.9901 58.1427C71.9901 54.4321 74.9071 50.7786 79.9534 50.7786C82.0244 50.7786 83.5704 51.3494 85.1164 51.9774V54.0325C82.6953 52.691 80.7118 52.5768 79.895 52.5768C76.9489 52.5768 74.1778 54.689 74.1778 58.0286C74.1778 61.1398 76.5406 63.4803 80.0992 63.4803C81.1785 63.4803 81.9077 63.2805 83.3079 62.8524V59.9124H80.5076V58.1427H85.4372V64.0797Z" fill="#ffffff"></path>
<path d="M94.7714 50.9497C95.4715 50.9497 96.3757 51.0068 97.3092 51.4064C98.8843 52.0343 99.6136 53.4615 99.6136 54.8886C99.6136 56.5156 98.7385 57.7715 97.1633 58.3709C98.5051 59.2272 99.3219 60.5117 100.43 62.2528C101.043 63.2233 101.422 63.7085 102.443 65.0786H99.9344C99.4385 64.3935 97.3967 61.3109 96.9008 60.7115C95.4423 58.9418 94.7423 58.9418 93.7213 58.9418H93.1671V65.0786H91.0669V50.9782H94.7714V50.9497ZM93.1671 52.6623V57.115H93.9839C94.3047 57.115 95.4423 57.115 96.0257 56.9152C97.0175 56.5442 97.4258 55.6593 97.4258 54.8886C97.4258 54.0894 96.9883 53.3188 96.3174 53.0048C95.7924 52.7479 95.0923 52.6623 93.8088 52.6623H93.1671Z" fill="#ffffff"></path>
<path d="M119.099 65.05H116.94L114.986 60.8827H108.744L106.877 65.05H104.718L111.048 50.864H112.536L119.099 65.05ZM114.111 59.056L111.748 53.9467L109.56 59.056H114.111Z" fill="#ffffff"></path>
<path d="M132.371 52.7194H127.237V65.05H125.137V52.7194H120.09V50.9497H132.371V52.7194Z" fill="#ffffff"></path>
<path d="M139.138 65.05H137.038V50.9497H139.138V65.05Z" fill="#ffffff"></path>
<path d="M159.323 57.9713C159.323 62.0245 156.086 65.2213 151.273 65.2213C146.664 65.2213 143.514 61.9388 143.514 58.0284C143.514 54.2892 146.372 50.7499 151.389 50.7499C156.261 50.7499 159.323 54.1751 159.323 57.9713ZM145.672 58.0284C145.672 61.2252 148.297 63.3374 151.389 63.3374C152.964 63.3374 154.656 62.7095 155.677 61.6534C156.611 60.6829 157.136 59.1416 157.136 57.9428C157.136 55.6022 155.269 52.6337 151.448 52.6337C147.335 52.6623 145.672 55.6879 145.672 58.0284Z" fill="#ffffff"></path>
<path d="M177 65.05H175.191L165.361 54.2036V65.05H163.378V50.9497H165.07L174.987 61.8817V50.9497H177V65.05Z" fill="#ffffff"></path>
<path d="M22.6938 17.7253C23.1897 17.7253 23.5689 17.3543 23.5689 16.869C23.5689 16.3838 23.1897 16.0128 22.6938 16.0128C22.1979 16.0128 21.8187 16.3838 21.8187 16.869C21.8187 17.3543 22.1979 17.7253 22.6938 17.7253Z" fill="#ffffff"></path>
<path d="M32.7864 18.3248C32.7281 18.182 32.5822 18.0964 32.4364 18.0964H29.8111C29.6653 18.0964 29.5194 18.182 29.4611 18.3248L27.7693 22.2066H26.1066L24.4148 18.3248C24.3565 18.182 24.2106 18.0964 24.0648 18.0964H21.3812C21.2353 18.0964 21.0895 18.182 21.0311 18.3248L19.2518 22.435C19.1643 22.6062 19.2226 22.806 19.3977 22.9202C19.456 22.9488 19.5435 22.9773 19.6018 22.9773C19.7477 22.9773 19.8935 22.8917 19.9519 22.749L21.4687 19.124L21.5854 22.6348L21.002 27.1161C20.9728 27.2873 21.0895 27.4586 21.2353 27.5157C21.2937 27.5442 21.3228 27.5442 21.3812 27.5442C21.5562 27.5442 21.7312 27.4015 21.7604 27.2302L22.3146 22.9773H23.073L23.6272 27.2017C23.6564 27.4015 23.8022 27.5157 24.0064 27.5157C24.0356 27.5157 24.0939 27.5157 24.1523 27.4871C24.3273 27.4301 24.4148 27.2588 24.3856 27.0875L23.8022 22.6348L23.9189 19.124L25.4941 22.749C25.4941 22.7775 25.5232 22.7775 25.5232 22.806C25.5232 22.806 25.5232 22.806 25.5232 22.8346L25.5816 22.8917C25.6107 22.8917 25.6107 22.9202 25.6399 22.9202C25.6399 22.9202 25.6399 22.9202 25.6691 22.9202C25.6983 22.9202 25.6983 22.9202 25.7274 22.9488C25.7274 22.9488 25.7274 22.9488 25.7566 22.9488C25.7858 22.9488 25.8149 22.9488 25.8149 22.9488H26.1358L25.6399 25.4606C25.6107 25.6318 25.6399 25.8316 25.7566 25.9743C25.8441 26.06 25.9316 26.1171 26.0191 26.1741V27.2302C26.0191 27.4015 26.165 27.5442 26.34 27.5442C26.515 27.5442 26.6608 27.4015 26.6608 27.2302V26.2027H27.1276V27.2302C27.1276 27.4015 27.2734 27.5442 27.4484 27.5442C27.6234 27.5442 27.7693 27.4015 27.7693 27.2302V26.1741C27.886 26.1456 27.9735 26.06 28.0318 25.9743C28.1485 25.8316 28.2068 25.6604 28.1485 25.4606L27.6526 22.9488H28.0026C28.0318 22.9488 28.061 22.9488 28.061 22.9488C28.061 22.9488 28.061 22.9488 28.0901 22.9488C28.1193 22.9488 28.1193 22.9488 28.1485 22.9202C28.1485 22.9202 28.1485 22.9202 28.1777 22.9202C28.2068 22.9202 28.2068 22.8917 28.236 22.8917C28.2652 22.8917 28.2652 22.8631 28.2652 22.8631L28.2943 22.8346C28.2943 22.8346 28.2943 22.8346 28.2943 22.806C28.2943 22.7775 28.3235 22.7775 28.3235 22.749L29.957 19.0098L30.2779 20.5226C30.3362 20.7795 30.3362 21.0364 30.2487 21.2933L28.761 27.5442H33.3698L31.8822 21.2647C31.8238 21.0078 31.7947 20.7509 31.853 20.5226L32.1739 18.9813L33.4282 22.0068C33.4865 22.1496 33.6323 22.2352 33.7782 22.2352C33.8365 22.2352 33.8657 22.2352 33.924 22.2066C34.1282 22.121 34.2157 21.9212 34.1282 21.7214L32.7864 18.3248Z" fill="#ffffff"></path>
<path d="M31.0946 17.7253C31.5905 17.7253 31.9697 17.3543 31.9697 16.869C31.9697 16.3838 31.5905 16.0128 31.0946 16.0128C30.5987 16.0128 30.2195 16.3838 30.2195 16.869C30.2195 17.3543 30.5987 17.7253 31.0946 17.7253Z" fill="#ffffff"></path>
<path d="M26.9234 22.0354C27.2939 22.0354 27.5943 21.7415 27.5943 21.3789C27.5943 21.0163 27.2939 20.7224 26.9234 20.7224C26.5528 20.7224 26.2525 21.0163 26.2525 21.3789C26.2525 21.7415 26.5528 22.0354 26.9234 22.0354Z" fill="#ffffff"></path>
<path d="M45.1251 0.627951H40.5455C41.7414 1.71259 43.4041 3.59645 43.4041 3.59645C47.8087 8.42026 50.3756 14.8996 50.3756 20.6653C50.3756 20.7224 50.3756 20.808 50.3756 20.8651H43.0541C41.9456 9.59053 32.7573 0.627951 21.5854 0.627951C9.65508 0.627951 0 10.6752 0 23.0629C0 29.7991 3.1503 37.306 8.28412 42.929H12.8345C11.6386 41.8444 9.97594 39.9605 9.97594 39.9605C5.57136 35.1367 3.00445 28.6574 3.00445 22.8917C3.00445 22.8346 3.00445 22.749 3.00445 22.6919H10.326C11.4344 33.995 20.652 42.929 31.8238 42.929C43.7541 42.929 53.4092 32.8818 53.4092 20.494C53.4092 13.7578 50.2589 6.25097 45.1251 0.627951ZM40.0496 20.8937H36.2868C36.2868 20.8651 36.2868 20.8366 36.2868 20.808C36.2868 18.6102 35.6742 16.498 34.6533 14.6141H38.3578C39.2329 16.5551 39.8163 18.6673 40.0496 20.8937ZM37.6869 13.3011H33.8365C32.4072 11.1889 30.4529 9.44781 28.3527 8.33463C29.3444 7.7923 30.2779 7.10727 31.0946 6.3366C33.8365 8.02065 36.1117 10.4183 37.6869 13.3011ZM22.4896 3.62499C25.2316 3.76771 27.7985 4.50983 30.1028 5.73719C28.1193 7.53542 25.4649 8.70569 22.4896 8.87695V3.62499ZM22.4896 9.99013C24.0648 9.9045 25.5816 9.56199 26.9817 8.99112C29.0236 9.87596 30.9488 11.3888 32.4364 13.3011H22.4896V9.99013ZM21.1187 3.59645V8.87695C18.0559 8.73423 15.2848 7.53542 13.2429 5.62302C15.6056 4.39566 18.2892 3.68208 21.1187 3.59645ZM21.1187 9.99013V13.2726H10.9969C12.4553 11.3602 14.3805 9.84742 16.4516 8.96258C17.8809 9.56199 19.456 9.93305 21.1187 9.99013ZM12.1928 6.22243C13.0387 7.02164 13.9722 7.73522 15.0223 8.30608C12.9221 9.41927 10.9969 11.1604 9.5384 13.2726H5.45468C7.08817 10.3612 9.39255 7.93502 12.1928 6.22243ZM3.06279 21.3503C3.23781 18.9527 3.85036 16.6693 4.78379 14.5856H8.75083C7.7299 16.4694 7.11734 18.5817 7.11734 20.7795C7.11734 20.8937 7.11734 21.1505 7.11734 21.3503H3.06279ZM13.3596 22.6633H17.0933C17.0933 22.6919 17.0933 22.7204 17.0933 22.749C17.0933 24.9468 17.7058 27.059 18.7268 28.9428H15.0514C14.1472 27.0019 13.5638 24.8897 13.3596 22.6633ZM15.6932 30.2558H19.5435C20.9728 32.368 22.9272 34.1092 25.0274 35.2224C24.0356 35.7647 23.1022 36.4497 22.2854 37.2204C19.5727 35.5363 17.2975 33.1387 15.6932 30.2558ZM30.9196 39.932C28.1777 39.7893 25.6108 39.0472 23.3064 37.8198C25.2899 36.0216 27.9735 34.8513 30.9196 34.68V39.932ZM30.9196 33.5668C29.3444 33.6525 27.8276 33.995 26.4275 34.5659C24.3856 33.681 22.4605 32.1682 21.002 30.2558H30.9196V33.5668ZM20.0977 28.9428C18.9893 27.0875 18.2892 24.9753 18.2892 22.749C18.2892 22.7204 18.2892 22.6919 18.2892 22.6633L18.3184 21.3503H8.28412C8.28412 21.1791 8.28412 20.9222 8.28412 20.7795C8.28412 18.5817 8.98418 16.4409 10.0926 14.5856H33.3115C34.4199 16.4409 35.12 18.5531 35.12 20.7795C35.12 20.808 35.12 20.8366 35.12 20.8651L35.0908 22.1781H45.0959C45.0959 22.3494 45.0959 22.6062 45.0959 22.749C45.0959 24.9468 44.425 27.0875 43.2874 28.9428H20.0977ZM42.4123 30.2558C40.9539 32.1682 39.0287 33.681 36.9577 34.5659C35.5284 33.9665 33.924 33.6239 32.2906 33.5668V30.2558H42.4123ZM32.2906 39.9605V34.68C35.3533 34.8228 38.1244 36.0216 40.1663 37.934C37.7744 39.1613 35.12 39.8749 32.2906 39.9605ZM41.1872 37.3346C40.3413 36.5353 39.4079 35.8218 38.3578 35.2509C40.458 34.1377 42.3832 32.3966 43.8416 30.2844H47.9254C46.321 33.1958 43.9875 35.622 41.1872 37.3346ZM48.5963 28.9428H44.6584C45.6793 27.059 46.2919 24.9468 46.2919 22.749C46.2919 22.6348 46.2919 22.3779 46.2919 22.1781H50.3173C50.1422 24.6043 49.5297 26.8877 48.5963 28.9428Z" fill="#ffffff"></path>
  </g>
</svg>